<svg xmlns="http://www.w3.org/2000/svg" viewBox="0 0 512 512">
  <defs>
    <linearGradient id="bg" x1="0" y1="0" x2="0" y2="1">
      <stop offset="0" stop-color="#16352a"/><stop offset="1" stop-color="#0f3d2b"/>
    </linearGradient>
    <linearGradient id="gold" x1="0" y1="0" x2="0" y2="1">
      <stop offset="0" stop-color="#e8c876"/><stop offset="1" stop-color="#b08828"/>
    </linearGradient>
  </defs>
  <rect width="100%" height="100%" rx="112" fill="url(#bg)"/>
  <g>
    <rect x="180" y="120" width="20" height="120" rx="3" fill="#f0556d"/>
    <rect x="187" y="100" width="6" height="160" fill="#f0556d"/>
    <rect x="246" y="92" width="20" height="150" rx="3" fill="#26d07c"/>
    <rect x="253" y="74" width="6" height="186" fill="#26d07c"/>
    <rect x="312" y="140" width="20" height="100" rx="3" fill="#26d07c"/>
    <rect x="319" y="120" width="6" height="138" fill="#26d07c"/>
  </g>
  <g>
    <path d="M150 248 q0 -56 106 -56 q106 0 106 56 z" fill="#1b6b4a" stroke="#d4a948" stroke-width="6"/>
    <rect x="202" y="222" width="14" height="32" fill="#d4a948"/>
    <rect x="296" y="222" width="14" height="32" fill="#d4a948"/>
    <rect x="146" y="248" width="220" height="118" rx="16" fill="url(#gold)" stroke="#124d36" stroke-width="6"/>
    <rect x="146" y="284" width="220" height="14" fill="#124d36"/>
    <rect x="168" y="248" width="14" height="118" fill="#124d36" opacity="0.9"/>
    <rect x="330" y="248" width="14" height="118" fill="#124d36" opacity="0.9"/>
    <rect x="236" y="276" width="40" height="38" rx="6" fill="#124d36"/>
    <g>
      <rect x="245" y="282.5" width="22" height="25" rx="2" fill="#1a1a1a"/>
      <rect x="245" y="290.5" width="22" height="3.5" fill="#e8c876"/>
      <rect x="253.58" y="297.5" width="4.84" height="10" fill="#e8c876" opacity="0.9"/>
    </g>
  </g>
</svg>
